<?xml version="1.0" encoding="UTF-8"?>
<svg id="Layer_9" data-name="Layer 9" xmlns="http://www.w3.org/2000/svg" viewBox="0 0 800 800">
  <defs>
    <style>
      .cls-1 {
        fill: #e9ead1;
      }
    </style>
  </defs>
  <rect class="cls-1" x="167.42" y="167.42" width="465.16" height="465.16" transform="translate(-146.41 546.41) rotate(-60)"/>
  <path d="M534.5,167.04L301.54,32.54,32.54,498.46l232.96,134.5,232.96,134.5,269-465.92-232.96-134.5ZM361.7,479.58h-168.29v-36.19h82.33v-76.72l-64.6,16.1v-39.27l64.6-15.92h40.9v115.81h45.06v36.19ZM458.51,483.2c-51.57,0-81.61-11.58-83.24-12.12v-37.46c1.81.72,35.83,13.93,77.63,13.93,22.26,0,47.41-1.45,47.41-17.55,0-13.75-21.35-16.47-47.41-16.47-32.57,0-69.3,5.25-71.3,5.61v-91.56h154.72v33.84h-112.55v21.71c.72-.18,16.11-2.71,34.74-2.71,44.7,0,85.05,5.79,85.05,51.21,0,32.21-29.5,51.57-85.05,51.57ZM608.16,417.33v28.05h-27.87v-28.05h-27.69v-27.14h27.69v-28.05h27.87v28.05h27.69v27.14h-27.69Z"/>
</svg>