<?xml version="1.0" encoding="UTF-8"?>
<svg id="Fear" xmlns="http://www.w3.org/2000/svg" viewBox="0 0 800 800">
  <defs>
    <style>
      .cls-1 {
        fill: #e9ead1;
      }
    </style>
  </defs>
  <rect class="cls-1" x="131" y="131" width="538" height="538" transform="translate(-146.41 546.41) rotate(-60)"/>
  <g>
    <rect x="392.9" y="441.78" width="34.05" height="31.87"/>
    <polygon points="394.93 429.46 425.64 429.46 428.54 351.95 392.03 351.95 394.93 429.46"/>
    <path d="M301.54,32.54L32.54,498.46l465.92,269,269-465.92L301.54,32.54ZM587.66,492.74l-60.34-70.08h-25.71c1.23,6.04,1.88,12.3,1.88,18.71,0,2.19-.08,4.36-.23,6.51l37.12,26.12v103.57h-35v-85.4l-12.05-8.48c-15.41,30.11-46.74,50.73-82.89,50.73s-67-20.3-82.53-50.04l-11.16,7.85-.82,85.5-35-.34.99-103.46,35.76-25.16c-.19-2.44-.29-4.92-.29-7.41,0-6.41.65-12.67,1.88-18.71h-25.2l-71.71,71.09-24.64-24.86,81.95-81.23h43.58l-31.9-11.33-85.46-80.67,24.03-25.45,80.1,75.61,33.04,11.73-35.25-57.97,19.46-58.88,33.23,10.98-14.38,43.54,16.31,26.83c9.58-16.59,27.49-27.76,48.03-27.76s40.04,12.19,49.26,30.01l16.51-28.81-14.47-43.8,33.23-10.98,19.37,58.62-32.9,57.43,30.95-10.99,83.66-75.79,23.5,25.94-88.85,80.49-31.72,11.27h44.4l70.81,82.24-26.52,22.84Z"/>
  </g>
</svg>