<?xml version="1.0" encoding="UTF-8"?>
<svg id="Gender-based_violence" data-name="Gender-based violence" xmlns="http://www.w3.org/2000/svg" viewBox="0 0 800 800">
  <defs>
    <style>
      .cls-1 {
        fill: #e9ead1;
      }
    </style>
  </defs>
  <rect class="cls-1" x="131" y="131" width="538" height="538" transform="translate(-146.41 546.41) rotate(-60)"/>
  <g>
    <path d="M301.54,32.54L32.54,498.46l465.92,269,269-465.92L301.54,32.54ZM497.49,254.84l-60.23,57.96-24.27-25.22,60.23-57.96,24.27,25.22ZM470.32,202.28l-67.5,75.8-26.14-23.28,67.5-75.8,26.14,23.28ZM401.7,142.53l27.28,21.93-15.65,19.46-27.28-21.93,15.65-19.46ZM330.51,120.92l34.01,8.29-3.7,15.2-34.01-8.29,3.7-15.2ZM220.12,361c4.57-9.25,9.15-18.49,13.72-27.74-.69-3.2-1.16-6.48-1.38-9.86-.23-3.63-.17-7.26.15-10.87l5.32-116.92,5.07-4.85c2.32-2.22,57.5-54.2,109.47-34.35l2.11.81,55.36,39.71-20.4,28.44-51.48-36.92c-20-6.22-44.96,7.5-60.35,18.9.44,16.6,4.52,27.35,8.72,34.4,11.03-4.88,23.35-7.86,36.56-8.32,14.86,16.8,31.45,34.31,49.89,52.11,16.94,16.35,33.57,31.14,49.56,44.47-15.22,41.57-53.04,69.18-94,69.53-4.84,6.65-9.67,13.3-14.51,19.95-31.28-19.49-62.55-38.99-93.83-58.48ZM373.31,232.56l-8.71,10.38-26.82-22.49,8.71-10.38,26.82,22.49ZM451.57,591.56v35h-36.62v27.9h-35v-27.9h-36.62v-35h36.62v-12.42c-34.14-7.95-59.66-38.61-59.66-75.14,0-42.55,34.62-77.16,77.16-77.16s77.16,34.62,77.16,77.16c0,36.53-25.52,67.19-59.66,75.14v12.42h36.62ZM646.22,374.55v-24.55l-20.56,20.61c5.51,10.62,8.65,22.66,8.65,35.43,0,42.55-34.62,77.16-77.16,77.16s-77.16-34.62-77.16-77.16,34.62-77.16,77.16-77.16c17.09,0,32.9,5.6,45.7,15.04l18.7-18.74h-30.12v-35h89.79v84.38h-35Z"/>
    <path d="M557.15,363.88c-23.25,0-42.16,18.91-42.16,42.16s18.92,42.16,42.16,42.16,42.16-18.92,42.16-42.16-18.92-42.16-42.16-42.16Z"/>
    <path d="M439.61,504c0-23.25-18.92-42.16-42.16-42.16s-42.16,18.92-42.16,42.16,18.92,42.16,42.16,42.16,42.16-18.92,42.16-42.16Z"/>
  </g>
</svg>