<?xml version="1.0" encoding="UTF-8"?>
<svg id="Language" xmlns="http://www.w3.org/2000/svg" viewBox="0 0 800 800">
  <defs>
    <style>
      .cls-1 {
        fill: #e9ead1;
      }
    </style>
  </defs>
  <rect class="cls-1" x="131" y="131" width="538" height="538" transform="translate(-146.41 546.41) rotate(-60)"/>
  <g>
    <path d="M301.54,32.54L32.54,498.46l465.92,269,269-465.92L301.54,32.54ZM282.03,497.47h-41.91v-40.01h41.91v40.01ZM276.89,435.01h-31.9l-7.84-132.48h47.31l-7.57,132.48ZM412.08,437.97l-23.79,17.57-23.25-31.63-23.25,31.63-23.52-17.57,23.25-30.01-35.96-10.54,8.38-28.39,36.77,11.9-.27-38.39h29.74l-.54,38.39,36.77-11.9,8.65,28.39-36.23,10.54,23.25,30.01ZM594.02,410.95l-5.68,35.15h-26.14l-6.31,37.85h-38.92l6.31-37.85h-19.48l-6.31,37.85h-38.92l6.31-37.85h-25.69l5.68-35.15h25.87l2.71-16.22h-25.96l5.68-35.15h26.14l6.31-37.85h38.92l-6.31,37.85h19.48l6.31-37.85h38.92l-6.31,37.85h25.42l-5.68,35.15h-25.6l-2.71,16.22h25.96Z"/>
    <polygon points="509.67 410.95 529.15 410.95 531.85 394.73 512.37 394.73 509.67 410.95"/>
  </g>
</svg>