<?xml version="1.0" encoding="UTF-8"?>
<svg id="Minor_story_spoilers" data-name="Minor story spoilers" xmlns="http://www.w3.org/2000/svg" viewBox="0 0 800 800">
  <defs>
    <style>
      .cls-1 {
        fill: #e9ead1;
      }
    </style>
  </defs>
  <rect class="cls-1" x="131" y="131" width="538" height="538" transform="translate(-146.41 546.41) rotate(-60)"/>
  <rect x="131" y="131" width="538" height="538" transform="translate(-146.41 546.41) rotate(-60)"/>
  <path class="cls-1" d="M534.81,479.44l.24-32.67s-.08,0-.12,0v-193.79l.12-16.33c-34.88-.25-72.64-.51-110.39-.76-37.75-.25-75.5-.51-110.37-.76h-.12c-28.88,0-48.31,7.07-59.41,21.61-9.79,12.83-9.98,27.65-9.98,37.67l-.45.54v217.81l.53-.66c.33,9.77,1.99,21.29,10.24,31.36,10.77,13.15,29.27,19.95,58.25,21.4l.41.02h221.18v-32.67h-13.44v-52.87c4.48.03,8.92.06,13.32.1ZM486.49,532.21h-171.91c-24.05-1.26-31.76-6.45-34.21-9.45-2.74-3.35-2.94-8.91-2.94-17.66,0-6.94,0-14.12,3.28-18.42,4.31-5.64,16.17-8.76,33.39-8.76,34.86.25,72.59.51,110.33.76,20.85.14,41.69.28,62.06.42v53.11Z"/>
  <g>
    <rect x="377.61" y="384.79" width="34.05" height="31.87"/>
    <polygon points="379.64 372.47 410.36 372.47 413.26 294.96 376.74 294.96 379.64 372.47"/>
  </g>
</svg>