<?xml version="1.0" encoding="UTF-8"?>
<svg id="Strobe" xmlns="http://www.w3.org/2000/svg" viewBox="0 0 800 800">
  <defs>
    <style>
      .cls-1 {
        fill: #e9ead1;
      }
    </style>
  </defs>
  <rect class="cls-1" x="131" y="131" width="538" height="538" transform="translate(-146.41 546.41) rotate(-60)"/>
  <path d="M301.54,32.54L32.54,498.46l465.92,269,269-465.92L301.54,32.54ZM511.22,264.03l24.74,24.75-38.85,38.86-24.75-24.75,38.86-38.86ZM382.5,225.22h35v54.95h-35v-54.95ZM288.78,264.03l38.86,38.86-24.75,24.75-38.85-38.86,24.74-24.75ZM225.22,382.5h54.95v35h-54.95v-35ZM288.78,535.96l-24.75-24.74,38.86-38.86,24.75,24.75-38.86,38.85ZM417.5,574.78h-35v-54.95h35v54.95ZM400,497.67c-53.94,0-97.67-43.73-97.67-97.67s43.73-97.67,97.67-97.67,97.67,43.73,97.67,97.67-43.73,97.67-97.67,97.67ZM511.22,535.97l-38.86-38.86,24.75-24.75,38.85,38.86-24.74,24.75ZM519.83,417.5v-35h54.95v35h-54.95Z"/>
  <circle cx="400" cy="400" r="59.62"/>
</svg>