<?xml version="1.0" encoding="UTF-8"?>
<svg id="Violence" xmlns="http://www.w3.org/2000/svg" viewBox="0 0 800 800">
  <defs>
    <style>
      .cls-1 {
        fill: #e9ead1;
      }
    </style>
  </defs>
  <rect class="cls-1" x="131" y="131" width="538" height="538" transform="translate(-146.41 546.41) rotate(-60)"/>
  <g>
    <polygon points="528.2 163.4 542.46 261.75 673.13 269.56 604.25 380.88 680.17 452.72 767.46 301.54 528.2 163.4"/>
    <path d="M177.75,246.95l2.53.08h0c36.74,1.12,73.48,2.24,110.23,3.36l30.38-127.34,97.67,87.17,83.46-61.94c-66.82-38.58-133.65-77.16-200.47-115.74l-123.79,214.41h0Z"/>
    <path d="M513.41,611.34l-6.6-40.31,41.71,16.64-11.55-100.12,95.72-31.57-73.21-69.27,53.03-85.71-100.61-6.01-14.46-99.74-80.93,60.07-75.19-67.11-23.39,98.04-100.74-3.07,43.74,87.41-43.42-8.57-49.3-98.53h0S32.54,498.46,32.54,498.46l465.92,269,76.06-131.74-3.3-1.32-57.81-23.06ZM497.42,409.5l-67.5,75.8-26.14-23.28,67.5-75.8,26.14,23.28ZM428.8,349.75l27.28,21.93-15.65,19.46-27.28-21.93,15.65-19.46ZM357.61,328.14l34.01,8.29-3.7,15.2-34.01-8.29,3.7-15.2ZM355.55,606.75c-4.84,6.65-9.67,13.3-14.51,19.95-31.28-19.49-62.55-38.99-93.83-58.48,4.57-9.25,9.15-18.49,13.72-27.74-.69-3.2-1.16-6.48-1.38-9.86-.23-3.63-.18-7.25.15-10.86l5.32-116.93,5.07-4.85c2.32-2.22,57.5-54.2,109.47-34.35l2.11.81,55.36,39.71-20.4,28.44-51.48-36.92c-20-6.22-44.96,7.5-60.35,18.9.44,16.6,4.52,27.35,8.72,34.4,11.03-4.88,23.35-7.86,36.56-8.32,14.86,16.8,31.45,34.31,49.89,52.11,16.94,16.35,33.57,31.14,49.56,44.47-15.22,41.57-53.04,69.18-94,69.53ZM400.41,439.77l-8.71,10.38-26.81-22.49,8.7-10.38,26.82,22.49ZM464.36,520.01l-24.27-25.22,60.23-57.96,24.27,25.22-60.23,57.96Z"/>
    <polygon points="662.74 482.93 575.02 511.86 586.84 614.38 662.74 482.93 662.74 482.93"/>
  </g>
</svg>